# Blender v2.57 (sub 1) OBJ File: ''
# www.blender.org
o Plane
v -1.000000 -1.000000 0.000000
v -1.000000 1.000000 0.000000
v 1.000000 1.000000 -0.000000
v 1.000000 -1.000000 -0.000000
v 1.000000 1.000000 0.000000
v -1.000000 1.000000 0.000001
v -1.000000 -1.000000 -0.000000
v 1.000000 -1.000000 -0.000001
vt 0.000000 0.000000
vt 1.000000 0.000000
vt 1.000000 1.000000
vt 0.000000 1.000000
vn 0.000000 -0.000000 1.000000
vn -0.000000 0.000000 -1.000000
usemtl (null)
s off
f 1/1/1 4/2/1 3/3/1
f 1/1/1 3/3/1 2/4/1
f 7/1/2 6/4/2 5/3/2
f 7/1/2 5/3/2 8/2/2
