# Blender3D v249 OBJ File: DirectLight.obj.blend
# www.blender3d.org
v 0.051911 0.211339 -0.053257
v 0.061133 0.211339 -0.042634
v 0.067985 0.211339 -0.030515
v 0.072205 0.211339 -0.017364
v 0.073629 0.211339 -0.003689
v 0.072205 0.211339 0.009987
v 0.067985 0.211339 0.023137
v 0.061133 0.211339 0.035257
v 0.051911 0.211339 0.045880
v 0.040674 0.211339 0.054597
v 0.027855 0.211339 0.061076
v 0.013944 0.211339 0.065064
v -0.000522 0.211339 0.066411
v -0.014988 0.211339 0.065064
v -0.028898 0.211339 0.061076
v -0.041718 0.211339 0.054597
v -0.052954 0.211339 0.045880
v -0.062176 0.211339 0.035257
v -0.069028 0.211339 0.023137
v -0.073248 0.211339 0.009987
v -0.074673 0.211339 -0.003689
v -0.073248 0.211339 -0.017364
v -0.069028 0.211339 -0.030515
v -0.062176 0.211339 -0.042634
v -0.052954 0.211339 -0.053257
v -0.041718 0.211339 -0.061975
v -0.028898 0.211339 -0.068453
v -0.014988 0.211339 -0.072442
v -0.000522 0.211339 -0.073789
v 0.013945 0.211339 -0.072442
v 0.027855 0.211339 -0.068452
v 0.040674 0.211339 -0.061975
v 0.051911 1.069797 -0.053257
v 0.061133 1.069797 -0.042634
v 0.067985 1.069797 -0.030515
v 0.072205 1.069797 -0.017365
v 0.073629 1.069797 -0.003688
v 0.072205 1.069797 0.009987
v 0.067985 1.069797 0.023137
v 0.061133 1.069797 0.035257
v 0.051911 1.069797 0.045879
v 0.040674 1.069797 0.054597
v 0.027855 1.069797 0.061075
v 0.013944 1.069797 0.065064
v -0.000522 1.069797 0.066411
v -0.014988 1.069797 0.065064
v -0.028898 1.069797 0.061076
v -0.041718 1.069797 0.054597
v -0.052954 1.069797 0.045879
v -0.062176 1.069797 0.035257
v -0.069028 1.069797 0.023138
v -0.073248 1.069797 0.009988
v -0.074673 1.069797 -0.003688
v -0.073248 1.069797 -0.017364
v -0.069029 1.069797 -0.030515
v -0.062176 1.069797 -0.042634
v -0.052955 1.069797 -0.053257
v -0.041718 1.069797 -0.061974
v -0.028899 1.069797 -0.068452
v -0.014988 1.069797 -0.072442
v -0.000522 1.069797 -0.073789
v 0.013944 1.069797 -0.072442
v 0.027854 1.069797 -0.068453
v 0.040674 1.069797 -0.061975
v -0.000522 0.211339 -0.003689
v -0.000522 1.069797 -0.003689
v -0.074246 0.218524 -0.074246
v -0.087304 0.218524 -0.058335
v -0.097007 0.218524 -0.040182
v -0.102982 0.218524 -0.020485
v -0.105000 0.218524 -0.000000
v -0.102982 0.218524 0.020484
v -0.097007 0.218524 0.040182
v -0.087304 0.218524 0.058335
v -0.074246 0.218524 0.074246
v -0.058335 0.218524 0.087304
v -0.040182 0.218524 0.097007
v -0.020484 0.218524 0.102982
v 0.000000 0.218524 0.105000
v 0.020485 0.218524 0.102982
v 0.040182 0.218524 0.097007
v 0.058335 0.218524 0.087304
v 0.074246 0.218524 0.074246
v 0.087305 0.218524 0.058335
v 0.097007 0.218524 0.040182
v 0.102982 0.218524 0.020484
v 0.105000 0.218524 -0.000000
v 0.102982 0.218524 -0.020485
v 0.097007 0.218524 -0.040182
v 0.087304 0.218524 -0.058335
v 0.074246 0.218524 -0.074246
v 0.058335 0.218524 -0.087305
v 0.040182 0.218524 -0.097007
v 0.020484 0.218524 -0.102982
v 0.000000 0.218524 -0.105000
v -0.020485 0.218524 -0.102982
v -0.040182 0.218524 -0.097007
v -0.058335 0.218524 -0.087304
v 0.000000 0.008524 -0.000000
v 0.000000 0.218524 -0.000000
vt 0.777785 0.135147
vt 0.853553 0.135147
vt 0.500000 1.135147
vt 0.500000 0.135147
vt 0.691342 -0.864853
vt 0.777785 -0.864853
vt 0.597545 -0.864853
vt 0.500000 -0.864853
vt 0.402455 -0.864853
vt 0.308658 -0.864853
vt 0.222215 -0.864853
vt 0.146447 -0.864853
vt 0.853553 -0.864853
vt 0.146446 -0.864853
vt 0.308659 -0.864853
vt 0.597546 -0.864853
vt 0.777786 -0.864853
vt 0.853554 -0.864853
vt 0.402456 -0.864853
vt 0.500001 -0.864853
vt 0.691343 -0.864853
vt 0.500000 0.500000
vt 0.853553 0.853553
vt 0.915735 0.777785
vt 0.961940 0.691342
vt 0.990393 0.597545
vt 1.000000 0.500000
vt 0.990393 0.402455
vt 0.961940 0.308658
vt 0.915735 0.222215
vt 0.853553 0.146447
vt 0.777785 0.084265
vt 0.691342 0.038060
vt 0.597545 0.009607
vt 0.500000 0.000000
vt 0.402455 0.009607
vt 0.308658 0.038060
vt 0.222215 0.084265
vt 0.146446 0.146447
vt 0.084265 0.222215
vt 0.038060 0.308659
vt 0.009607 0.402455
vt 0.000000 0.500000
vt 0.009607 0.597546
vt 0.038060 0.691342
vt 0.084266 0.777786
vt 0.146447 0.853554
vt 0.222215 0.915735
vt 0.308659 0.961940
vt 0.402456 0.990393
vt 0.500001 1.000000
vt 0.597546 0.990393
vt 0.691343 0.961939
vt 0.777786 0.915734
vn 0.000000 -1.000000 0.000000
vn 0.484848 -0.708792 -0.512314
vn 0.662343 -0.556413 -0.501663
vn 0.000000 1.000000 0.000000
vn 0.694418 0.556413 -0.456221
vn 0.614185 0.448927 -0.648976
vn 0.749321 -0.556475 -0.358898
vn 0.772057 0.556475 -0.306955
vn 0.806665 -0.556505 -0.198859
vn 0.818476 0.556505 -0.142674
vn 0.830317 -0.556536 -0.028809
vn 0.830317 0.556536 0.028809
vn 0.818476 -0.556505 0.142674
vn 0.806665 0.556505 0.198859
vn 0.772057 -0.556475 0.306955
vn 0.749321 0.556475 0.358898
vn 0.694418 -0.556413 0.456221
vn 0.662343 0.556413 0.501663
vn 0.614185 -0.448927 0.648976
vn 0.484848 0.708792 0.512314
vn 0.421369 -0.556261 0.716239
vn 0.466414 0.556261 0.687735
vn 0.278726 -0.556200 0.782861
vn 0.327494 0.556200 0.763756
vn 0.128208 -0.556169 0.821100
vn 0.179083 0.556169 0.811518
vn -0.025758 -0.556169 0.830653
vn 0.025758 0.556169 0.830653
vn -0.179083 -0.556169 0.811518
vn -0.128208 0.556169 0.821100
vn -0.327494 -0.556200 0.763756
vn -0.278726 0.556200 0.782891
vn -0.466414 -0.556261 0.687735
vn -0.421369 0.556261 0.716208
vn -0.590625 -0.556322 0.584460
vn -0.551073 0.556322 0.621906
vn -0.694418 -0.556413 0.456221
vn -0.662343 0.556413 0.501663
vn -0.772057 -0.556475 0.306955
vn -0.749321 0.556475 0.358898
vn -0.818476 -0.556505 0.142674
vn -0.806665 0.556505 0.198859
vn -0.830317 -0.556536 -0.028809
vn -0.830317 0.556536 0.028809
vn -0.806665 -0.556505 -0.198859
vn -0.818476 0.556505 -0.142644
vn -0.749321 -0.556475 -0.358898
vn -0.772057 0.556475 -0.306955
vn -0.662343 -0.556413 -0.501663
vn -0.694418 0.556413 -0.456221
vn -0.551073 -0.556322 -0.621906
vn -0.590625 0.556322 -0.584460
vn -0.421369 -0.556261 -0.716208
vn -0.466414 0.556261 -0.687735
vn -0.278726 -0.556200 -0.782861
vn -0.327525 0.556200 -0.763756
vn -0.128208 -0.556169 -0.821100
vn -0.179083 0.556169 -0.811518
vn 0.025758 -0.556169 -0.830653
vn -0.025788 0.556169 -0.830653
vn 0.179083 -0.556169 -0.811518
vn 0.128208 0.556169 -0.821100
vn 0.327494 -0.556200 -0.763756
vn 0.278726 0.556200 -0.782861
vn 0.466414 -0.556261 -0.687735
vn 0.421369 0.556261 -0.716239
vn -0.705893 0.528367 -0.471664
vn -0.600330 0.528367 -0.600330
vn -0.784356 0.528367 -0.324870
vn -0.832667 0.528367 -0.165624
vn -0.848994 0.528367 0.000000
vn -0.832667 0.528367 0.165624
vn -0.784356 0.528367 0.324900
vn -0.705893 0.528367 0.471664
vn -0.600330 0.528367 0.600330
vn -0.471664 0.528367 0.705893
vn -0.324870 0.528367 0.784356
vn -0.165624 0.528367 0.832667
vn 0.000000 0.528367 0.848994
vn 0.165624 0.528367 0.832667
vn 0.324870 0.528367 0.784356
vn 0.471664 0.528367 0.705893
vn 0.600330 0.528367 0.600330
vn 0.705893 0.528367 0.471664
vn 0.784356 0.528367 0.324870
vn 0.832667 0.528367 0.165624
vn 0.848994 0.528367 0.000000
vn 0.832667 0.528367 -0.165624
vn 0.784356 0.528367 -0.324870
vn 0.705893 0.528367 -0.471664
vn 0.600330 0.528367 -0.600330
vn 0.471664 0.528367 -0.705893
vn 0.324870 0.528367 -0.784356
vn 0.165624 0.528367 -0.832667
vn 0.000000 0.528367 -0.848994
vn -0.165624 0.528367 -0.832667
vn -0.324870 0.528367 -0.784356
vn -0.471664 0.528367 -0.705893
usemtl (null)
s 1
f 65/1/1 1/1/2 2/1/3
f 66/1/4 34/1/5 33/1/6
f 65/1/1 2/1/3 3/1/7
f 66/1/4 35/1/8 34/1/5
f 65/1/1 3/1/7 4/1/9
f 66/1/4 36/1/10 35/1/8
f 65/1/1 4/1/9 5/1/11
f 66/1/4 37/1/12 36/1/10
f 65/1/1 5/1/11 6/1/13
f 66/1/4 38/1/14 37/1/12
f 65/1/1 6/1/13 7/1/15
f 66/1/4 39/1/16 38/1/14
f 65/1/1 7/1/15 8/1/17
f 66/1/4 40/1/18 39/1/16
f 65/1/1 8/1/17 9/1/19
f 66/1/4 41/1/20 40/1/18
f 65/1/1 9/1/19 10/1/21
f 66/1/4 42/1/22 41/1/20
f 65/1/1 10/1/21 11/1/23
f 66/1/4 43/1/24 42/1/22
f 65/1/1 11/1/23 12/1/25
f 66/1/4 44/1/26 43/1/24
f 65/1/1 12/1/25 13/1/27
f 66/1/4 45/1/28 44/1/26
f 65/1/1 13/1/27 14/1/29
f 66/1/4 46/1/30 45/1/28
f 65/1/1 14/1/29 15/1/31
f 66/1/4 47/1/32 46/1/30
f 65/1/1 15/1/31 16/1/33
f 66/1/4 48/1/34 47/1/32
f 65/1/1 16/1/33 17/1/35
f 66/1/4 49/1/36 48/1/34
f 65/1/1 17/1/35 18/1/37
f 66/1/4 50/1/38 49/1/36
f 65/1/1 18/1/37 19/1/39
f 66/1/4 51/1/40 50/1/38
f 65/1/1 19/1/39 20/1/41
f 66/1/4 52/1/42 51/1/40
f 65/1/1 20/1/41 21/1/43
f 66/1/4 53/1/44 52/1/42
f 65/1/1 21/1/43 22/1/45
f 66/1/4 54/1/46 53/1/44
f 65/1/1 22/1/45 23/1/47
f 66/1/4 55/1/48 54/1/46
f 65/1/1 23/1/47 24/1/49
f 66/1/4 56/1/50 55/1/48
f 65/1/1 24/1/49 25/1/51
f 66/1/4 57/1/52 56/1/50
f 65/1/1 25/1/51 26/1/53
f 66/1/4 58/1/54 57/1/52
f 65/1/1 26/1/53 27/1/55
f 66/1/4 59/1/56 58/1/54
f 65/1/1 27/1/55 28/1/57
f 66/1/4 60/1/58 59/1/56
f 65/1/1 28/1/57 29/1/59
f 66/1/4 61/1/60 60/1/58
f 65/1/1 29/1/59 30/1/61
f 66/1/4 62/1/62 61/1/60
f 65/1/1 30/1/61 31/1/63
f 66/1/4 63/1/64 62/1/62
f 65/1/1 31/1/63 32/1/65
f 66/1/4 64/1/66 63/1/64
f 32/1/65 1/1/2 65/1/1
f 66/1/4 33/1/6 64/1/66
f 33/1/6 1/1/2 32/1/65
f 33/1/6 32/1/65 64/1/66
f 31/1/63 63/1/64 64/1/66
f 31/1/63 64/1/66 32/1/65
f 30/1/61 62/1/62 63/1/64
f 30/1/61 63/1/64 31/1/63
f 29/1/59 61/1/60 62/1/62
f 29/1/59 62/1/62 30/1/61
f 28/1/57 60/1/58 61/1/60
f 28/1/57 61/1/60 29/1/59
f 27/1/55 59/1/56 60/1/58
f 27/1/55 60/1/58 28/1/57
f 26/1/53 58/1/54 59/1/56
f 26/1/53 59/1/56 27/1/55
f 25/1/51 57/1/52 58/1/54
f 25/1/51 58/1/54 26/1/53
f 24/1/49 56/1/50 57/1/52
f 24/1/49 57/1/52 25/1/51
f 23/1/47 55/1/48 56/1/50
f 23/1/47 56/1/50 24/1/49
f 22/1/45 54/1/46 55/1/48
f 22/1/45 55/1/48 23/1/47
f 21/1/43 53/1/44 54/1/46
f 21/1/43 54/1/46 22/1/45
f 20/1/41 52/1/42 53/1/44
f 20/1/41 53/1/44 21/1/43
f 19/1/39 51/1/40 52/1/42
f 19/1/39 52/1/42 20/1/41
f 18/1/37 50/1/38 51/1/40
f 18/1/37 51/1/40 19/1/39
f 17/1/35 49/1/36 50/1/38
f 17/1/35 50/1/38 18/1/37
f 16/1/33 48/1/34 49/1/36
f 16/1/33 49/1/36 17/1/35
f 15/1/31 47/1/32 48/1/34
f 15/1/31 48/1/34 16/1/33
f 14/1/29 46/1/30 47/1/32
f 14/1/29 47/1/32 15/1/31
f 13/1/27 45/1/28 46/1/30
f 13/1/27 46/1/30 14/1/29
f 12/1/25 44/1/26 45/1/28
f 12/1/25 45/1/28 13/1/27
f 11/1/23 43/1/24 44/1/26
f 11/1/23 44/1/26 12/1/25
f 10/1/21 42/1/22 43/1/24
f 10/1/21 43/1/24 11/1/23
f 9/1/19 41/1/20 42/1/22
f 9/1/19 42/1/22 10/1/21
f 8/1/17 40/1/18 9/1/19
f 40/1/18 41/1/20 9/1/19
f 7/1/15 39/1/16 8/1/17
f 39/1/16 40/1/18 8/1/17
f 6/1/13 38/1/14 7/1/15
f 38/1/14 39/1/16 7/1/15
f 5/1/11 37/1/12 6/1/13
f 37/1/12 38/1/14 6/1/13
f 4/1/9 36/1/10 5/1/11
f 36/1/10 37/1/12 5/1/11
f 3/1/7 35/1/8 4/1/9
f 35/1/8 36/1/10 4/1/9
f 2/1/3 34/1/5 3/1/7
f 34/1/5 35/1/8 3/1/7
f 1/1/2 33/1/6 2/1/3
f 33/1/6 34/1/5 2/1/3
f 68/1/67 67/2/68 99/3/1
f 99/4/1 69/5/69 68/6/67
f 99/4/1 70/7/70 69/5/69
f 99/4/1 71/8/71 70/7/70
f 99/4/1 72/9/72 71/8/71
f 99/4/1 73/10/73 72/9/72
f 99/4/1 74/11/74 73/10/73
f 99/4/1 75/12/75 74/11/74
f 99/4/1 76/6/76 75/13/75
f 99/4/1 77/5/77 76/6/76
f 99/4/1 78/7/78 77/5/77
f 99/4/1 79/8/79 78/7/78
f 99/4/1 80/9/80 79/8/79
f 99/4/1 81/10/81 80/9/80
f 99/4/1 82/11/82 81/10/81
f 99/4/1 83/14/83 82/11/82
f 99/4/1 84/11/84 83/12/83
f 99/4/1 85/15/85 84/11/84
f 99/4/1 86/9/86 85/15/85
f 99/4/1 87/8/87 86/9/86
f 99/4/1 88/16/88 87/8/87
f 99/4/1 89/5/89 88/16/88
f 99/4/1 90/17/90 89/5/89
f 99/4/1 91/18/91 90/17/90
f 99/4/1 92/11/92 91/12/91
f 99/4/1 93/15/93 92/11/92
f 99/4/1 94/19/94 93/15/93
f 99/4/1 95/20/95 94/19/94
f 99/4/1 96/16/96 95/20/95
f 99/4/1 97/21/97 96/16/96
f 99/4/1 98/17/98 97/21/97
f 99/4/1 67/13/68 98/17/98
f 100/22/4 67/23/68 68/24/67
f 100/22/4 68/24/67 69/25/69
f 100/22/4 69/25/69 70/26/70
f 100/22/4 70/26/70 71/27/71
f 100/22/4 71/27/71 72/28/72
f 100/22/4 72/28/72 73/29/73
f 100/22/4 73/29/73 74/30/74
f 100/22/4 74/30/74 75/31/75
f 100/22/4 75/31/75 76/32/76
f 100/22/4 76/32/76 77/33/77
f 100/22/4 77/33/77 78/34/78
f 100/22/4 78/34/78 79/35/79
f 100/22/4 79/35/79 80/36/80
f 100/22/4 80/36/80 81/37/81
f 100/22/4 81/37/81 82/38/82
f 100/22/4 82/38/82 83/39/83
f 100/22/4 83/39/83 84/40/84
f 100/22/4 84/40/84 85/41/85
f 100/22/4 85/41/85 86/42/86
f 100/22/4 86/42/86 87/43/87
f 100/22/4 87/43/87 88/44/88
f 100/22/4 88/44/88 89/45/89
f 100/22/4 89/45/89 90/46/90
f 100/22/4 90/46/90 91/47/91
f 100/22/4 91/47/91 92/48/92
f 100/22/4 92/48/92 93/49/93
f 100/22/4 93/49/93 94/50/94
f 100/22/4 94/50/94 95/51/95
f 100/22/4 95/51/95 96/52/96
f 100/22/4 96/52/96 97/53/97
f 100/22/4 97/53/97 98/54/98
f 98/54/98 67/23/68 100/22/4
